<svg width="35" height="35" viewBox="0 0 35 35" fill="none" xmlns="http://www.w3.org/2000/svg">
<path d="M30.625 5.83331H2.91663V8.74997H6.27079L11.0541 21.875C11.355 22.726 11.9117 23.4631 12.648 23.9853C13.3843 24.5074 14.264 24.7891 15.1666 24.7916H27.7083V21.875H15.1666C14.8669 21.8748 14.5745 21.7824 14.3292 21.6102C14.084 21.4379 13.8977 21.1943 13.7958 20.9125L13.125 18.9583H26.6583C27.2912 18.9574 27.9067 18.7506 28.4118 18.3691C28.9169 17.9877 29.2842 17.4523 29.4583 16.8437L32.0833 7.68539C32.1426 7.49389 32.1617 7.29222 32.1396 7.09298C32.1174 6.89374 32.0544 6.7012 31.9545 6.5274C31.8546 6.3536 31.72 6.20226 31.5589 6.08284C31.3979 5.96341 31.214 5.87847 31.0187 5.83331C30.8883 5.81207 30.7553 5.81207 30.625 5.83331ZM26.6145 16.0416H12.0312L9.37704 8.74997H28.6854L26.6145 16.0416Z" fill="#B05B3B"/>
<path d="M15.3125 30.625C16.5206 30.625 17.5 29.6456 17.5 28.4375C17.5 27.2294 16.5206 26.25 15.3125 26.25C14.1044 26.25 13.125 27.2294 13.125 28.4375C13.125 29.6456 14.1044 30.625 15.3125 30.625Z" fill="#B05B3B"/>
<path d="M24.0625 30.625C25.2706 30.625 26.25 29.6456 26.25 28.4375C26.25 27.2294 25.2706 26.25 24.0625 26.25C22.8544 26.25 21.875 27.2294 21.875 28.4375C21.875 29.6456 22.8544 30.625 24.0625 30.625Z" fill="#B05B3B"/>
</svg>
