<svg width="25" height="24" viewBox="0 0 25 24" fill="none" xmlns="http://www.w3.org/2000/svg">
<path d="M20.783 10.356H12.456V13.807H17.248C16.802 16 14.935 17.26 12.456 17.26C11.7623 17.2612 11.0753 17.1254 10.4342 16.8605C9.79312 16.5955 9.21065 16.2067 8.7202 15.7161C8.22975 15.2256 7.84097 14.643 7.57615 14.0019C7.31133 13.3608 7.1757 12.6737 7.17701 11.98C7.17583 11.2864 7.31156 10.5994 7.57644 9.95842C7.84131 9.3174 8.23011 8.73498 8.72055 8.24454C9.21099 7.75411 9.79341 7.3653 10.4344 7.10043C11.0754 6.83556 11.7624 6.69982 12.456 6.701C13.715 6.701 14.853 7.14801 15.746 7.879L18.346 5.28C16.762 3.899 14.731 3.047 12.456 3.047C11.2818 3.04357 10.1185 3.27231 9.03306 3.72007C7.94759 4.16783 6.96135 4.82578 6.13107 5.65606C5.30079 6.48634 4.64284 7.47258 4.19508 8.55805C3.74732 9.64353 3.51858 10.8068 3.52201 11.981C3.51845 13.1552 3.7471 14.3186 4.19481 15.4041C4.64253 16.4896 5.30046 17.4759 6.13077 18.3062C6.96108 19.1366 7.94737 19.7945 9.03291 20.2422C10.1184 20.6899 11.2818 20.9186 12.456 20.915C16.923 20.915 20.985 17.666 20.985 11.981C20.985 11.453 20.904 10.884 20.783 10.356Z" fill="#734939"/>
</svg>
