<svg width="191" height="34" viewBox="0 0 191 34" fill="none" xmlns="http://www.w3.org/2000/svg">
<path d="M89.66 27V6.392H95.82C97.892 6.392 99.656 6.7 101.112 7.316C102.568 7.932 103.735 8.75333 104.612 9.78C105.508 10.8067 106.161 11.9547 106.572 13.224C106.983 14.4933 107.188 15.772 107.188 17.06C107.188 18.5907 106.908 19.972 106.348 21.204C105.807 22.4173 105.06 23.4627 104.108 24.34C103.156 25.1987 102.055 25.8613 100.804 26.328C99.5533 26.776 98.228 27 96.828 27H89.66ZM93.72 23.08H96.128C97.1547 23.08 98.088 22.9493 98.928 22.688C99.768 22.408 100.487 22.0067 101.084 21.484C101.7 20.9613 102.167 20.308 102.484 19.524C102.82 18.7213 102.988 17.8067 102.988 16.78C102.988 15.436 102.764 14.344 102.316 13.504C101.887 12.6453 101.345 11.9827 100.692 11.516C100.057 11.0493 99.404 10.732 98.732 10.564C98.06 10.3773 97.4907 10.284 97.024 10.284H93.72V23.08ZM109.666 20.728C109.666 19.4773 109.955 18.3573 110.534 17.368C111.131 16.3787 111.962 15.604 113.026 15.044C114.09 14.4653 115.312 14.176 116.694 14.176C118.094 14.176 119.307 14.4653 120.334 15.044C121.36 15.604 122.144 16.3787 122.686 17.368C123.246 18.3573 123.526 19.4773 123.526 20.728C123.526 21.9787 123.246 23.108 122.686 24.116C122.144 25.1053 121.36 25.8893 120.334 26.468C119.307 27.0467 118.075 27.336 116.638 27.336C115.294 27.336 114.09 27.0747 113.026 26.552C111.98 26.0293 111.159 25.2733 110.562 24.284C109.964 23.2947 109.666 22.1093 109.666 20.728ZM113.614 20.756C113.614 21.3907 113.744 21.9693 114.006 22.492C114.267 22.996 114.622 23.3973 115.07 23.696C115.518 23.9947 116.022 24.144 116.582 24.144C117.198 24.144 117.73 23.9947 118.178 23.696C118.626 23.3973 118.971 22.996 119.214 22.492C119.456 21.9693 119.578 21.3907 119.578 20.756C119.578 20.1027 119.456 19.524 119.214 19.02C118.971 18.516 118.626 18.1147 118.178 17.816C117.73 17.5173 117.198 17.368 116.582 17.368C116.022 17.368 115.518 17.5173 115.07 17.816C114.622 18.1147 114.267 18.516 114.006 19.02C113.744 19.524 113.614 20.1027 113.614 20.756ZM137.002 25.908C136.46 26.3373 135.779 26.6827 134.958 26.944C134.155 27.2053 133.362 27.336 132.578 27.336C131.178 27.336 129.955 27.084 128.91 26.58C127.883 26.0573 127.08 25.32 126.502 24.368C125.942 23.3973 125.662 22.2307 125.662 20.868C125.662 19.5053 125.97 18.348 126.586 17.396C127.202 16.4253 128.004 15.688 128.994 15.184C130.002 14.68 131.056 14.428 132.158 14.428C133.259 14.428 134.211 14.5773 135.014 14.876C135.835 15.1747 136.535 15.5667 137.114 16.052L135.21 18.572C134.948 18.3667 134.584 18.1613 134.118 17.956C133.67 17.732 133.138 17.62 132.522 17.62C131.98 17.62 131.486 17.76 131.038 18.04C130.59 18.32 130.235 18.7027 129.974 19.188C129.712 19.6733 129.582 20.2333 129.582 20.868C129.582 21.4653 129.722 22.016 130.002 22.52C130.282 23.024 130.664 23.4253 131.15 23.724C131.654 24.004 132.242 24.144 132.914 24.144C133.343 24.144 133.735 24.088 134.09 23.976C134.463 23.8453 134.78 23.668 135.042 23.444L137.002 25.908ZM146.032 27.336C144.539 27.336 143.269 27.056 142.224 26.496C141.197 25.936 140.413 25.1613 139.872 24.172C139.331 23.1827 139.06 22.044 139.06 20.756C139.06 19.524 139.377 18.4133 140.012 17.424C140.647 16.4347 141.496 15.6507 142.56 15.072C143.624 14.4747 144.809 14.176 146.116 14.176C147.871 14.176 149.308 14.6893 150.428 15.716C151.567 16.724 152.304 18.1893 152.64 20.112L143.12 23.136L142.252 21.008L149.14 18.684L148.328 19.048C148.179 18.5627 147.908 18.1427 147.516 17.788C147.143 17.4147 146.573 17.228 145.808 17.228C145.229 17.228 144.716 17.368 144.268 17.648C143.839 17.9093 143.503 18.292 143.26 18.796C143.036 19.2813 142.924 19.86 142.924 20.532C142.924 21.2973 143.064 21.9413 143.344 22.464C143.624 22.968 144.007 23.3507 144.492 23.612C144.977 23.8733 145.519 24.004 146.116 24.004C146.545 24.004 146.956 23.9293 147.348 23.78C147.759 23.6307 148.16 23.4347 148.552 23.192L150.288 26.104C149.635 26.4773 148.925 26.776 148.16 27C147.413 27.224 146.704 27.336 146.032 27.336ZM159.017 14.764L159.381 18.124L159.297 17.62C159.651 16.892 160.137 16.276 160.753 15.772C161.369 15.2493 161.975 14.848 162.573 14.568C163.189 14.288 163.655 14.148 163.973 14.148L163.777 18.068C162.862 17.956 162.078 18.1053 161.425 18.516C160.771 18.9267 160.267 19.468 159.913 20.14C159.558 20.812 159.381 21.5027 159.381 22.212V27H155.489V14.764H159.017ZM166.973 14.764H170.893V27H166.973V14.764ZM166.889 10.424C166.889 9.84533 167.113 9.36933 167.561 8.996C168.028 8.62267 168.522 8.436 169.045 8.436C169.568 8.436 170.044 8.62267 170.473 8.996C170.921 9.36933 171.145 9.84533 171.145 10.424C171.145 11.0027 170.921 11.4787 170.473 11.852C170.044 12.2067 169.568 12.384 169.045 12.384C168.522 12.384 168.028 12.2067 167.561 11.852C167.113 11.4787 166.889 11.0027 166.889 10.424ZM180.082 27.336C178.943 27.336 177.907 27.112 176.974 26.664C176.059 26.1973 175.331 25.488 174.79 24.536C174.249 23.584 173.978 22.3707 173.978 20.896C173.978 19.5147 174.258 18.32 174.818 17.312C175.378 16.304 176.115 15.5293 177.03 14.988C177.945 14.428 178.915 14.148 179.942 14.148C181.155 14.148 182.07 14.3533 182.686 14.764C183.321 15.156 183.843 15.5947 184.254 16.08L184.086 16.556L184.45 14.764H188.09V27H184.17V24.34L184.478 25.18C184.441 25.18 184.329 25.292 184.142 25.516C183.955 25.7213 183.675 25.9733 183.302 26.272C182.947 26.552 182.499 26.7947 181.958 27C181.435 27.224 180.81 27.336 180.082 27.336ZM181.202 24.144C181.669 24.144 182.089 24.0787 182.462 23.948C182.835 23.7987 183.162 23.5933 183.442 23.332C183.722 23.052 183.965 22.7067 184.17 22.296V19.3C184.021 18.8893 183.797 18.544 183.498 18.264C183.199 17.9653 182.845 17.7413 182.434 17.592C182.023 17.424 181.566 17.34 181.062 17.34C180.502 17.34 179.979 17.4893 179.494 17.788C179.027 18.068 178.654 18.46 178.374 18.964C178.094 19.468 177.954 20.0467 177.954 20.7C177.954 21.3533 178.103 21.9413 178.402 22.464C178.701 22.9867 179.093 23.3973 179.578 23.696C180.082 23.9947 180.623 24.144 181.202 24.144Z" fill="#734939"/>
<path d="M74.4895 2.93462C74.4895 3.91468 74.0087 4.78211 73.2715 5.3151H69.8384C69.1012 4.78211 68.6204 3.91468 68.6204 2.93462C68.6204 1.31451 69.9341 0 71.5549 0C73.1765 0 74.4895 1.31451 74.4895 2.93462Z" fill="#F95428"/>
<path d="M71.1549 2.93462C71.1549 1.76818 71.836 0.760272 72.8223 0.287139C72.4387 0.103201 72.0089 0 71.5549 0C69.9341 0 68.6203 1.31451 68.6203 2.93462C68.6203 3.91468 69.1012 4.78211 69.8384 5.3151H72.3729C71.6358 4.78211 71.1549 3.91468 71.1549 2.93462Z" fill="#E54728"/>
<path d="M80.1145 16.0367H79.3343H74.8789H68.1212H63.6658H62.9955H60.3298L63.8904 27H66.1631H69.1977H73.8017H76.837H79.109L82.6702 16.0367H80.1145Z" fill="#F7B239"/>
<path d="M80.3299 11.6919C79.7983 11.161 79.0646 10.8322 78.2549 10.8322H76.1462C77.6916 10.8322 78.9449 9.5797 78.9449 8.03421V7.76173C78.9449 6.2163 77.6916 4.96301 76.1462 4.96301H73.2714H69.8384H66.9643C65.4189 4.96301 64.1656 6.2163 64.1656 7.76173V8.03421C64.1656 9.57964 65.4189 10.8322 66.9643 10.8322H64.8556C63.2355 10.8322 61.921 12.1468 61.921 13.7669C61.921 14.578 62.2498 15.3109 62.7807 15.8425C62.849 15.9108 62.9208 15.9755 62.9954 16.0368H63.6657H68.1212H74.8789H79.3343H80.1144C80.7699 15.4989 81.1896 14.6822 81.1896 13.7669C81.1895 12.9564 80.8607 12.2235 80.3299 11.6919Z" fill="#B27214"/>
<path d="M66.6883 15.8425C66.7566 15.9107 66.8284 15.9755 66.903 16.0368H62.9954C62.9208 15.9755 62.849 15.9107 62.7807 15.8425C62.2498 15.3109 61.921 14.5779 61.921 13.7668C61.921 12.1467 63.2355 10.8322 64.8556 10.8322H68.7633C67.1431 10.8322 65.8286 12.1467 65.8286 13.7668C65.8286 14.5779 66.1574 15.3109 66.6883 15.8425Z" fill="#995C0D"/>
<path d="M70.872 10.8322H66.9644C65.4189 10.8322 64.1656 9.5797 64.1656 8.03421V7.76173C64.1656 6.2163 65.4189 4.96301 66.9644 4.96301H70.872C69.3266 4.96301 68.0733 6.2163 68.0733 7.76173V8.03421C68.0733 9.5797 69.3265 10.8322 70.872 10.8322Z" fill="#995C0D"/>
<path d="M68.1212 16.0367H63.6658H62.9955H60.3298L63.8904 27H66.1631H69.1977L68.1212 16.0367Z" fill="#E09B2D"/>
<path d="M2.66 27V6.392H8.82C10.892 6.392 12.656 6.7 14.112 7.316C15.568 7.932 16.7347 8.75333 17.612 9.78C18.508 10.8067 19.1613 11.9547 19.572 13.224C19.9827 14.4933 20.188 15.772 20.188 17.06C20.188 18.5907 19.908 19.972 19.348 21.204C18.8067 22.4173 18.06 23.4627 17.108 24.34C16.156 25.1987 15.0547 25.8613 13.804 26.328C12.5533 26.776 11.228 27 9.828 27H2.66ZM6.72 23.08H9.128C10.1547 23.08 11.088 22.9493 11.928 22.688C12.768 22.408 13.4867 22.0067 14.084 21.484C14.7 20.9613 15.1667 20.308 15.484 19.524C15.82 18.7213 15.988 17.8067 15.988 16.78C15.988 15.436 15.764 14.344 15.316 13.504C14.8867 12.6453 14.3453 11.9827 13.692 11.516C13.0573 11.0493 12.404 10.732 11.732 10.564C11.06 10.3773 10.4907 10.284 10.024 10.284H6.72V23.08ZM28.7696 27.336C27.6309 27.336 26.5949 27.112 25.6616 26.664C24.7469 26.1973 24.0189 25.488 23.4776 24.536C22.9362 23.584 22.6656 22.3707 22.6656 20.896C22.6656 19.5147 22.9456 18.32 23.5056 17.312C24.0656 16.304 24.8029 15.5293 25.7176 14.988C26.6322 14.428 27.6029 14.148 28.6296 14.148C29.8429 14.148 30.7576 14.3533 31.3736 14.764C32.0082 15.156 32.5309 15.5947 32.9416 16.08L32.7736 16.556L33.1376 14.764H36.7776V27H32.8576V24.34L33.1656 25.18C33.1282 25.18 33.0162 25.292 32.8296 25.516C32.6429 25.7213 32.3629 25.9733 31.9896 26.272C31.6349 26.552 31.1869 26.7947 30.6456 27C30.1229 27.224 29.4976 27.336 28.7696 27.336ZM29.8896 24.144C30.3562 24.144 30.7762 24.0787 31.1496 23.948C31.5229 23.7987 31.8496 23.5933 32.1296 23.332C32.4096 23.052 32.6522 22.7067 32.8576 22.296V19.3C32.7082 18.8893 32.4842 18.544 32.1856 18.264C31.8869 17.9653 31.5322 17.7413 31.1216 17.592C30.7109 17.424 30.2536 17.34 29.7496 17.34C29.1896 17.34 28.6669 17.4893 28.1816 17.788C27.7149 18.068 27.3416 18.46 27.0616 18.964C26.7816 19.468 26.6416 20.0467 26.6416 20.7C26.6416 21.3533 26.7909 21.9413 27.0896 22.464C27.3882 22.9867 27.7802 23.3973 28.2656 23.696C28.7696 23.9947 29.3109 24.144 29.8896 24.144ZM44.3728 14.764L44.6808 16.948L44.6248 16.752C45.0541 15.9867 45.6608 15.3707 46.4448 14.904C47.2288 14.4187 48.1901 14.176 49.3288 14.176C50.4861 14.176 51.4474 14.5213 52.2128 15.212C52.9968 15.884 53.3981 16.7613 53.4168 17.844V27H49.4968V19.3C49.4781 18.7587 49.3288 18.3293 49.0488 18.012C48.7874 17.676 48.3394 17.508 47.7048 17.508C47.1074 17.508 46.5848 17.704 46.1368 18.096C45.6888 18.488 45.3434 19.02 45.1008 19.692C44.8581 20.364 44.7368 21.1387 44.7368 22.016V27H40.8168V14.764H44.3728Z" fill="#F7B239"/>
</svg>
